<?xml version="1.0" encoding="UTF-8"?>
<svg id="Layer_1" data-name="Layer 1" xmlns="http://www.w3.org/2000/svg" viewBox="0 0 201.72 181.16">
  <path d="M169.53,3.65c1.57-.79,3.13-1.58,4.7-2.37.89-.34,1.74-.73,2.52-1.29.18,0,.36,0,.54,0,.57,1.19,1.19,2.35,1.96,3.42.17.53.43,1.01.8,1.43,1.82,3.43,3.7,6.83,5.76,10.13,1.76,3.44,3.73,6.76,5.68,10.09.97,1.71,1.95,3.41,2.92,5.12.92,1.83,1.93,3.62,3.03,5.35.52,1.12,1.13,2.19,1.82,3.2.28.51.56,1.01.84,1.52.32.59.62,1.18.95,1.76q.97,1.73-.56,2.97c-.33.22-.65.45-.98.67-3.39,2.37-6.77,4.74-10.16,7.11-1.25.88-2.5,1.76-3.75,2.65-.42.28-.83.56-1.25.84-.97.66-1.95,1.32-2.92,1.99q-1.79,1.25-3.07-.44c-.18.9-1.6,1.46-.73,2.66,0,0-.37.3-.57.45-1.05.76-2.11,1.53-3.16,2.29-.99.69-1.97,1.38-2.96,2.07-.65.34-1.24.76-1.77,1.26-3.44,2.26-6.8,4.63-10.11,7.08-1.01.57-1.97,1.23-2.84,2-.81.42-1.54.95-2.21,1.55-.29.17-.58.32-.86.51q-1.77,1.22-3.14-.47c-.07.43.09.99-.4,1.07-.92.15-.53.57-.29,1,.25.45.75.89.11,1.41-.16.1-.31.21-.47.31-3.43,2.29-6.81,4.64-10.13,7.1-1.18.82-2.35,1.65-3.53,2.47-.51.36-1.02.71-1.53,1.07-3.37,2.36-6.73,4.72-10.1,7.08-1.03.73-2.06,1.46-3.08,2.19-.68.47-1.36.94-2.04,1.41-.66.53-1.13.44-1.48-.38-.27-.64-.68-1.23-1.02-1.84,1.66-1.13,3.31-2.29,4.99-3.39.61-.4.95-.89,1.12-1.58,1.01-4.1-2.56-10.22-6.63-11.36-1.78-.5-3.37-.33-4.74,1.08-.7.71-1.55,1.28-2.33,1.91-.23-.33-.47-.67-.7-1-1.83-3.43-3.73-6.82-5.79-10.12-1.82-3.44-3.76-6.81-5.78-10.13-.78-1.56-1.6-3.09-2.61-4.52-.09-.17-.18-.33-.27-.5-.33-.63-.71-1.24-.98-1.89-.38-.94-.94-1.21-1.83-.68-.6.36-.98.2-1.31-.41-1.05-1.97-2.14-3.91-3.23-5.86-.22-.4-.3-.78-.08-1.19q1.44-.6.67-1.95c-.06-.11-.12-.22-.19-.33q-.93-1.62.64-2.6c.49-.09.89-.37,1.29-.66,1.72-.8,3.41-1.64,5.04-2.62,1.34-.57,2.65-1.21,3.87-2,.44-.09.82-.31,1.17-.58,1.7-.87,3.39-1.74,5.09-2.61,1.01-.53,2.03-1.06,3.04-1.59.72-.25,1.38-.59,2-1.04,1.73-.75,3.41-1.62,5.04-2.58.98-.39,1.93-.86,2.8-1.48.81-.24,1.54-.67,2.26-1.1.83-.46,1.65-.92,2.09.46.39,1.21,1.06,1.61,2.13.7-.4-.77-1.21-1.62-1.09-2.3.15-.82,1.47-.89,2.2-1.41.03-.02.06-.06.08-.09.98-.45,2.02-.81,2.85-1.55.72-.08,1.27-.51,1.86-.85,1.7-.87,3.4-1.75,5.09-2.62,1.07-.43,2.1-.94,3.06-1.59.72-.22,1.37-.57,1.97-1,3.52-1.66,7-3.42,10.41-5.31.27-.11.57-.17.8-.34.77-.58,1.25-.39,1.56.48.1.27.28.51.42.77.19.36.32.31.73.16.92-.33.9-.74.39-1.37-.65-.79-.6-1.38.46-1.72.15-.05.27-.18.4-.27.9-.31,1.75-.72,2.52-1.28.9-.3,1.75-.71,2.53-1.26,3.55-1.63,7.03-3.39,10.47-5.25ZM175.96,53.96c.04.1.08.23.22.14.03-.02-.04-.19-.07-.28-.49-1.15-1.13-2.22-1.84-3.24.01-.08-.02-.14-.08-.19-.91-1.73-1.83-3.45-2.93-5.08-.49-1.16-1.16-2.21-1.83-3.26-.32-.74-.7-1.45-1.21-2.09-.81-1.66-1.72-3.25-2.73-4.79-.35-.82-.76-1.6-1.32-2.3-.41-.97-.92-1.87-1.54-2.72-2.13-3.8-4.25-7.59-6.45-11.52-.29.65-.61.94-1.14.9-.04-.05-.09-.11-.13-.16-.01.04-.02.07-.03.11.06.01.12.03.17.04,0,.16-.04.34.03.46,1.99,3.5,3.99,6.99,5.99,10.48,1.77,3.32,3.59,6.61,5.56,9.82.66,1.41,1.4,2.76,2.3,4.04.09.38.25.72.54,1,.9,1.84,1.92,3.61,3.01,5.34.52.92,1.03,1.83,1.55,2.75.2.41.39.81.64,1.34.24-.74.75-.82,1.32-.77ZM143.85,69.67c.08.37.25.68.54.93.63,1.16,1.26,2.33,1.9,3.52.42-.36.74-.87,1.38-.73l.14.19c.15-.12.07-.21-.04-.29-.36-1-.93-1.86-1.55-2.71-.58-1.24-1.27-2.41-2.05-3.53-.23-.65-.6-1.23-1.03-1.77-.85-1.65-1.77-3.25-2.8-4.79-.32-.73-.68-1.44-1.22-2.04-.46-1.09-1.06-2.09-1.76-3.04-1.91-3.54-3.95-6.99-6.07-10.41-.68-1.38-1.46-2.71-2.32-3.99-.05-.32-.22-.57-.47-.77-1.03-1.84-2.07-3.67-3.15-5.6-.18.35-.24.66-.37.69-1.14.3-.56.88-.25,1.41.7,1.19,1.41,2.37,2.11,3.55.49.94.95,1.91,1.63,2.73.31.82.76,1.57,1.29,2.27,1.91,3.53,3.91,7.01,6.02,10.42,1.88,3.27,3.76,6.53,5.64,9.8.75,1.42,1.51,2.83,2.43,4.15Z" fill="#c1b4b4" stroke-width="0"/>
  <path d="M108.46,86.77c.78-.63,1.63-1.19,2.33-1.91,1.37-1.41,2.96-1.58,4.74-1.08,4.07,1.14,7.64,7.26,6.63,11.36-.17.69-.51,1.19-1.12,1.58-1.68,1.1-3.33,2.26-4.99,3.39-.66.25-1.24.63-1.83,1.27,1.48.85,2.91,1.67,4.33,2.48,3.34,2.08,6.71,4.12,10.16,6.02.61.49,1.27.89,2.01,1.18.94.73,1.98,1.3,3.05,1.82,1.62,1.12,3.32,2.09,5.05,3.02,0,.07.01.14.05.2-.04.09-.07.19-.11.28-.92.05-1.43.78-2.08,1.27-3.93,2.96-7.84,5.93-11.76,8.9-1.09-.32-4.1,1.87-4.1,2.99,0,.08.05.16.08.24-4.85,3.66-9.71,7.32-14.63,11.04-.15-.42-.27-.69-.35-.97-1.67-5.88-3.37-11.75-4.99-17.64-.32-1.17-.98-2.28-.8-3.57.46.28.91.58,1.39.83,1.2.62,2.14,1.7,3.53,1.99.94-.22,1.22-.82,1.19-1.76-.07-2.14-.03-4.29-.03-6.44.38-.57.12-1.33.54-1.89,2.15-.99,3.91-2.61,5.97-3.73.29-.16.34-.47.29-.78-.48-3.18-.12-6.38-.22-9.57-.05-1.57,0-3.14,0-5.01-.31.37-.44.48-.5.61-1.11,2.24-2.7,3.99-4.91,5.23-1.72.96-3.33,2.12-4.98,3.21-.78.51-1.5.76-2.44.22-.86-.5-1.86-.76-2.8-1.12-1.88-1.17-3.75-2.34-5.63-3.51-.58-.37-1.09-.94-1.5.29-.19.58-1.02.83-1.75.68-.65-.13-1.3-.33-1.96-.4-.7-.08-1.05-.43-1.16-1.09,2.57-1.14,4.9-2.71,7.34-4.08.84-.47,1.54-.54,2.35-.17-.11.81-.35,1.61-.24,2.44-.9.53-1.87.96-2.73,1.74,1.33.36,2.04-.68,3.01-.96.5.79,1.09,1.47,2.11,1.56,1.67.61,3.37,1.14,5.13.45,1.19-.46,2.1-1.31,2.25-2.64.13-1.16-.55-1.95-1.49-2.57-.48-.32-.9-.74-1.35-1.12.72-1.69,1.93-2.63,3.84-2.53.36.02.72-.15,1.09-.24.86-.23,1.37-.93,1.97-1.5Z" fill="#f2a314" stroke-width="0"/>
  <path d="M4.71,70.65c.95-.29,1.83-.74,2.67-1.28,2.7-1.26,5.4-2.53,8.09-3.79.47.5.94.34,1.47.08,3.35-1.63,6.71-3.24,10.08-4.84.56-.27.89-.6.79-1.25l4.83-2.4c1.23-.48,2.43-1.03,3.55-1.73.56-.12,1.06-.38,1.51-.73.88-.4,1.74-.83,2.64-1.18.68-.27,1.27-.91,2.11-.59,3.4,2.14,6.85,4.19,10.37,6.12.78.58,1.59,1.09,2.49,1.46.8.61,1.65,1.14,2.58,1.53,1.63,1.11,3.32,2.11,5.07,3,.24.28.54.45.9.53,1.32.95,2.72,1.75,4.17,2.48,1.39.85,2.78,1.69,4.15,2.55.34.22.61.19.9-.05.15.02.31.04.46.07.14.7.55,1.15,1.2,1.49,1.4.73,2.77,1.53,4.16,2.3.56.6,1.28.93,2.01,1.25.69.55,1.44.99,2.25,1.33,1.63,1.1,3.32,2.11,5.08,2.99.36.34.76.61,1.25.74,1.2.87,2.48,1.61,3.82,2.26,1.8,1.1,3.61,2.19,5.4,3.3.34.21.78.31.97.73-2.96,1.66-5.95,3.26-8.87,5-2.04,1.22-4.25,2.17-6.12,3.68-.49-.32-.98-.63-1.47-.95-.66-.32-.79.3-.98.63-.41.72-.72,1.49-1.08,2.24-.89.47-1.79.91-2.66,1.41-7.88,4.52-15.76,9.05-23.64,13.58-4.61-3.31-9.23-6.62-13.84-9.94-10.52-7.56-21.02-15.15-31.56-22.69-3.15-2.25-6.19-4.64-9.48-6.69.55-.83,1.61-.84,2.3-1.44.86-.28,1.66-.67,2.41-1.19ZM61.7,67.6c.23-1.11-.33-1.72-1.3-2.1-1.86-.72-3.75-.69-5.63-.13-1.07.32-2.05.83-1.85,2.25-.12,2.05.46,2.79,2.47,3.22,1.25.27,2.48.27,3.73,0,2.1-.45,2.64-1.1,2.58-3.25ZM62.26,73.67c-.02,1.9.36,2.44,2.15,3.01,1.64.52,3.3.5,4.93,0,1.9-.59,2.29-1.2,2.18-3.22.12-1.16-.56-1.84-1.51-2.21-2.16-.83-4.33-.77-6.46.21-.95.44-1.42,1.15-1.29,2.21ZM77.18,93.47c-.15-.99-.34-1.97-.44-2.97-.28-3.02-1.04-5.99-.99-9.04.01-.6-.29-.42-.63-.37-1.31.2-2.63.37-4.12-.41.36,1.11.39,2.05.28,2.99-.16,1.41-.33,2.81-.5,4.22-.77-.43-1.56-.83-2.31-1.29-.4-.25-.73-.32-1.15-.05-.99.63-2,1.25-3.02,1.84-.64.37-.52.6.04.92,1.21.68,2.45,1.33,3.58,2.12.83.58,1.56.72,2.38.11-.02.47-.04.93-.06,1.4-1.11.23-1.88,1.07-2.84,1.56-.63.33-.19.57.14.77,1.76,1.06,3.53,2.12,5.29,3.19.3.18.6.31.94.11,1.95-1.2,3.9-2.4,6.04-3.73-1.04-.54-1.85-.96-2.66-1.38ZM53.45,85.94c-.22-.18-.31-.26-.42-.33-4.22-2.7-8.44-5.39-12.64-8.11-.53-.35-.92-.21-1.38.03-4.71,2.43-9.42,4.87-14.15,7.26-.87.44-.84.68-.1,1.22,4.07,2.92,8.12,5.86,12.15,8.84.62.46,1.06.42,1.67.05,2.62-1.6,5.26-3.17,7.9-4.75,2.3-1.38,4.59-2.76,6.98-4.2Z" fill="#f2a314" stroke-width="0"/>
  <path d="M0,73.28c3.28,2.05,6.33,4.44,9.48,6.69,10.54,7.54,21.04,15.12,31.56,22.69,4.61,3.32,9.22,6.63,13.84,9.94.15,4.52.47,9.03.72,13.54.19,3.34.39,6.69.5,10.04.2,6.2.81,12.38.83,18.59-1.34-1.03-2.68-2.05-4.02-3.08-.08-.06-.16-.13-.24-.19-1.54-1.42-3.18-2.71-4.86-3.97-.42-.43-.85-.84-1.39-1.11-1.14-1.09-2.37-2.07-3.66-2.98-.77-.76-1.6-1.45-2.51-2.04-.78-.77-1.61-1.46-2.53-2.05-3.27-2.8-6.61-5.52-10.02-8.15-1.66-1.48-3.37-2.89-5.17-4.19-.25-.35-.57-.61-.97-.78-1.17-1.12-2.44-2.13-3.76-3.07-.76-.75-1.58-1.42-2.48-2.01-.89-.87-1.85-1.65-2.88-2.34-.18-.17-.33-.39-.54-.51-2.71-1.68-4.58-3.89-4.72-7.25-.32-1.68-.63-3.36-.95-5.03l-.99-5.08c-.33-1.68-.65-3.35-.98-5.03-.63-3.38-1.18-6.78-2-10.12-.23-1.7-.54-3.39-.99-5.05-.21-1.71-.53-3.4-1-5.06-.1-.79-.19-1.59-.29-2.38ZM37.21,112.2c.43,4.55.85,8.8,1.23,13.05.38,4.26.7,8.53,1.05,12.8.05.58.3.99.77,1.37,4.53,3.69,9.03,7.41,13.55,11.12.19.16.36.44.63.35.37-.13.23-.51.21-.77-.14-2.68-.33-5.36-.46-8.05-.28-5.96-.52-11.92-.8-17.89-.14-2.98-.33-5.95-.48-8.93-.02-.41-.14-.74-.48-.97-3.72-2.61-7.43-5.23-11.15-7.83-.38-.26-.78-.35-.65.33.25,1.37.03,2.76.29,4.15.23,1.23.02,2.52.32,4.01-1.44-.98-2.6-1.78-4.02-2.74ZM30.56,113.98c-.25-3.19-.48-6.1-.7-9.02-.04-.55-.43-.77-.83-1.02-1.65-1.01-3.29-2.03-4.93-3.05-.28-.17-.57-.51-.89-.31-.32.2-.16.62-.14.94.15,2.01.26,4.02.54,6.01.11.75-.2,1.75.51,2.25,2.05,1.43,4.18,2.74,6.45,4.2Z" fill="#904d07" stroke-width="0"/>
  <path d="M124.92,126.55c3.92-2.97,7.83-5.94,11.76-8.9.65-.49,1.16-1.22,2.08-1.27-.36,3.28-.73,6.56-1.09,9.85-.19,1.68-.38,3.37-.57,5.05-.28,1.67-.53,3.35-.56,5.05-.39,1.66-.46,3.35-.63,5.03-.19,1.7-.39,3.39-.58,5.09-.01,1.06-1.05,1.35-1.55,2.04-.67.51-1.43.93-1.86,1.71-1.01.42-1.75,1.18-2.45,1.98-.31.12-.57.31-.74.6-1.53,1.16-3.01,2.39-4.39,3.74-.61.31-1.06.81-1.53,1.29-.92.55-1.72,1.24-2.43,2.03-2.56,2.12-5.17,4.19-7.57,6.5-.92.43-1.56,1.19-2.29,1.86-1.58,1.32-3.2,2.61-4.73,3.99-.73.66-1.41,1-2.32.5-1.19-.63-2.41-1.19-3.71-1.53-.24-.38-.66-.52-1.04-.68-1.82-.77-3.66-1.5-5.46-2.3-1.72-.77-3.66-1.18-5.14-2.36-5.15-4.11-10.18-8.37-15.34-12.47-1.61-1.28-2.29-2.6-2.26-4.74.14-10.15.09-20.31.03-30.47,0-1.21.43-1.82,1.42-2.35,4.01-2.13,8-4.32,11.99-6.49.55-.3,1.07-.39,1.65-.01,4.84,3.13,9.69,6.24,14.54,9.35-.18,1.29.48,2.4.8,3.57,1.62,5.89,3.32,11.77,4.99,17.64.08.28.2.55.35.97,4.92-3.71,9.77-7.37,14.63-11.04.32.14.64.21.95-.03.9-.69,1.8-1.38,2.7-2.07.39-.3.41-.71.36-1.14Z" fill="#d46f05" stroke-width="0"/>
  <path d="M100.14,118.64c-4.85-3.11-9.7-6.22-14.54-9.35-.59-.38-1.1-.29-1.65.01-3.99,2.17-7.98,4.35-11.99,6.49-.99.53-1.43,1.14-1.42,2.35.06,10.16.11,20.31-.03,30.47-.03,2.14.65,3.47,2.26,4.74,5.16,4.1,10.19,8.36,15.34,12.47,1.48,1.18,3.41,1.59,5.14,2.36,1.8.8,3.65,1.53,5.46,2.3.38.16.8.3,1.04.68-.45.38-.9.76-1.35,1.15-1.02.76-2.05,1.51-3.37,2.49.44-1.86-.23-2.82-1.6-3.54-.9-.47-1.4-.46-1.79.49-2.27,2.95-4.57,5.88-6.81,8.86-.45.6-.81.74-1.36.24-1.72-1.4-3.44-2.8-5.16-4.21-1.73-1.37-3.47-2.75-5.2-4.12-.33-.26-.66-.53-.99-.79-1.2-1.1-2.45-2.13-3.79-3.04-.09-.67-.18-1.33-.27-2,0-1.7.05-3.4-.24-5.08,0-.62-.06-1.25,0-1.87.09-.88-.42-1.82.22-2.65h1.79c-.54-.58-.94-1.19-1.69-1.32-1.72-.3-3.43-.61-5.14-.92-1.32-.24-2.64-.48-3.96-.73-.08-.02-.16-.04-.24-.06-.63-.2-1.29-.46-1.06-1.28.21-.77.81-.79,1.52-.6.85.22,1.76.18,2.6.43,1.14.33,2,.05,2.82-.86-1.5-.68-2.59-1.81-3.87-2.68-.64-.43-.85-.92-.86-1.67-.06-3.49-.01-6.97-.16-10.47-.21-4.96-.07-9.93-.1-14.9,0-.86.09-1.35,1.08-.78.51.29,1.12.4,1.6.72.83.55,1.32.28,1.86-.45,2.38-3.25,4.85-6.43,7.18-9.71,1.43-2.01,3.1-3.85,4.25-6.05,2.1-.89,3.9-2.29,5.94-3.39-.3-.15-.52-.26-.74-.37,1.3-2.25,2.39-4.58,2.4-7.26.49.32.98.63,1.47.95.02.32.18.56.46.71.11.66.46,1.01,1.16,1.09.66.07,1.3.27,1.96.4.73.14,1.56-.11,1.75-.68.41-1.23.91-.66,1.5-.29,1.87,1.17,3.75,2.34,5.63,3.51-.01,2.86,0,5.71-.05,8.57-.02.99.37,1.44,1.35,1.47,0-.97-.57-1.81-.18-2.77.42-1.01,1.15-1.56,2.17-1.66,1.56-.15,3.01.1,3.96,1.57-.63-.03-1.25-.08-1.88-.08-2.03.02-3.56,1.59-3.64,3.7-.08,2.04,1.43,3.71,3.45,3.9.96.09,1.8-.25,2.66-.55.02,2.3.03,4.59.05,6.89-1.39-.29-2.33-1.37-3.53-1.99-.48-.25-.93-.55-1.39-.83Z" fill="#904d07" stroke-width="0"/>
  <path d="M104.41,107.6c-.95-1.46-2.4-1.72-3.96-1.57-1.03.1-1.75.65-2.17,1.66-.4.96.19,1.8.18,2.77-.98-.04-1.37-.48-1.35-1.47.05-2.86.04-5.71.05-8.57.94.36,1.94.62,2.8,1.12.94.54,1.66.29,2.44-.22,1.65-1.08,3.26-2.24,4.98-3.21,2.21-1.24,3.8-2.99,4.91-5.23.07-.13.19-.24.5-.61,0,1.86-.04,3.44,0,5.01.1,3.19-.26,6.39.22,9.57.05.31,0,.62-.29.78-2.07,1.13-3.83,2.74-5.97,3.73-.17-1.63-.96-2.88-2.33-3.77Z" fill="#d46f05" stroke-width="0"/>
  <path d="M104.41,107.6c1.37.89,2.16,2.14,2.33,3.77-.43.56-.16,1.32-.54,1.9-.4.44-.8.88-1.2,1.31-.86.3-1.7.64-2.66.55-2.02-.19-3.53-1.86-3.45-3.9.08-2.11,1.61-3.68,3.64-3.7.63,0,1.25.05,1.88.08Z" fill="#5b5b5b" stroke-width="0"/>
  <path d="M99.78,89.66c.37.39.73.78,1.1,1.17.03.21.04.42.09.62.72,2.9-1,5.29-3.95,5.47-1.02-.09-1.61-.77-2.11-1.56-.06-.27-.03-.58-.28-.78-.11-.83.13-1.63.24-2.44,1.58-2.53,2.42-2.95,4.91-2.48Z" fill="#5b5b5b" stroke-width="0"/>
  <path d="M99.78,89.66c-2.48-.48-3.33-.05-4.91,2.48-.82-.37-1.51-.3-2.35.17-2.44,1.37-4.77,2.94-7.34,4.08-.29-.15-.44-.39-.46-.71,1.87-1.51,4.07-2.46,6.12-3.68,2.91-1.74,5.91-3.34,8.87-5,.26.88.11,1.77.09,2.65Z" fill="#d46f05" stroke-width="0"/>
  <path d="M97.03,96.92c2.94-.18,4.67-2.57,3.95-5.47-.05-.2-.06-.41-.09-.62.23.07.46.13.68.2.45.38.86.8,1.35,1.12.94.62,1.63,1.41,1.49,2.57-.15,1.33-1.06,2.18-2.25,2.64-1.76.69-3.46.16-5.13-.45Z" fill="#904d07" stroke-width="0"/>
  <path d="M105.01,114.58c.4-.44.8-.87,1.2-1.31,0,2.15-.03,4.29.03,6.44.03.95-.25,1.54-1.19,1.76-.01-2.3-.03-4.59-.04-6.89Z" fill="#d46f05" stroke-width="0"/>
  <path d="M124.92,126.55c.05.43.03.84-.36,1.14-.9.68-1.8,1.38-2.7,2.07-.31.24-.63.17-.95.03-.03-.08-.08-.16-.08-.24,0-1.12,3-3.32,4.1-2.99Z" fill="#5b5b5b" stroke-width="0"/>
  <path d="M94.64,94.58c.25.2.22.51.28.78-.97.28-1.68,1.32-3.01.96.86-.78,1.83-1.21,2.73-1.74Z" fill="#904d07" stroke-width="0"/>
  <path d="M75.63,105.75c-1.14,2.21-2.82,4.05-4.25,6.05-2.34,3.28-4.8,6.46-7.18,9.71-.54.73-1.03,1-1.86.45-.48-.32-1.1-.43-1.6-.72-.99-.57-1.09-.08-1.08.78.04,4.97-.11,9.94.1,14.9.15,3.49.1,6.98.16,10.47.01.75.23,1.24.86,1.67,1.28.87,2.37,2,3.87,2.68-.82.91-1.68,1.19-2.82.86-.84-.24-1.75-.21-2.6-.43-.72-.19-1.31-.16-1.52.6-.23.82.43,1.08,1.06,1.28.08.03.16.04.24.06-.38.18-.75.36-1.13.55-.32.04-.62.28-.96.09-.02-6.21-.63-12.39-.83-18.59-.11-3.34-.31-6.69-.5-10.04-.25-4.51-.57-9.02-.72-13.54,7.88-4.53,15.76-9.06,23.64-13.58.87-.5,1.77-.94,2.66-1.41-.17.53-.34,1.07-.5,1.6-2.38,1.32-4.76,2.64-7.15,3.96-.73.41-.78.74.03,1.18.73.39,1.38.93,2.07,1.4Z" fill="#d46f05" stroke-width="0"/>
  <path d="M70.27,92.94c.02-.47.04-.93.06-1.4.16-1.21.32-2.43.48-3.64.17-1.41.34-2.81.5-4.22.11-.94.07-1.88-.28-2.99,1.49.78,2.81.61,4.12.41.34-.05.64-.23.63.37-.05,3.05.7,6.02.99,9.04.09.99.29,1.98.44,2.97-.29.78.74,1.72-.33,2.41-.8.51-1.65.8-2.6.8-.38,0-.76.02-1.13,0-2.79-.12-3.46-1-2.85-3.74Z" fill="#d46f05" stroke-width="0"/>
  <path d="M62.26,73.67c-.13-1.06.35-1.77,1.29-2.21,2.12-.98,4.29-1.04,6.46-.21.95.36,1.64,1.04,1.51,2.21-2.07,2.39-7.25,2.3-9.26.22Z" fill="#d46f05" stroke-width="0"/>
  <path d="M52.92,67.63c-.21-1.42.77-1.93,1.85-2.25,1.88-.56,3.76-.59,5.63.13.97.38,1.53.98,1.31,2.1-1.7,2.29-7.5,2.24-8.78.03Z" fill="#d46f05" stroke-width="0"/>
  <path d="M70.8,87.9c-.16,1.21-.32,2.43-.48,3.64-.83.61-1.55.47-2.38-.11-1.14-.79-2.37-1.44-3.58-2.12-.56-.32-.68-.55-.04-.92,1.02-.59,2.03-1.2,3.02-1.84.42-.27.75-.19,1.15.05.75.46,1.54.86,2.31,1.29Z" fill="#5b5b5b" stroke-width="0"/>
  <path d="M70.27,92.94c-.61,2.73.06,3.62,2.85,3.74.38.02.75,0,1.13,0,.95,0,1.8-.29,2.6-.8,1.07-.68.04-1.63.33-2.41.81.42,1.62.84,2.66,1.38-2.14,1.32-4.09,2.52-6.04,3.73-.34.21-.64.08-.94-.11-1.76-1.07-3.53-2.12-5.29-3.19-.33-.2-.77-.45-.14-.77.96-.5,1.73-1.33,2.84-1.56Z" fill="#5b5b5b" stroke-width="0"/>
  <path d="M15.47,65.58c-.11-.79.44-1.06,1.03-1.32.44-.2.86-.46,1.29-.69,2.75-1.3,5.5-2.59,8.24-3.9.49-.23.96-.53,1.54-.37.08.09.17.18.25.27.1.65-.23.98-.79,1.25-3.37,1.6-6.73,3.21-10.08,4.84-.53.26-1.01.42-1.47-.08Z" fill="#5b5b5b" stroke-width="0"/>
  <path d="M62.26,73.67c2.01,2.08,7.19,2.17,9.26-.22.11,2.03-.28,2.64-2.18,3.22-1.63.51-3.29.53-4.93,0-1.79-.57-2.17-1.11-2.15-3.01Z" fill="#904d07" stroke-width="0"/>
  <path d="M52.92,67.63c1.28,2.21,7.08,2.27,8.78-.03.06,2.15-.48,2.79-2.58,3.25-1.25.27-2.48.27-3.73,0-2-.43-2.59-1.16-2.47-3.22Z" fill="#904d07" stroke-width="0"/>
  <path d="M80.68,99.21c.17-.53.34-1.07.5-1.6.35-.75.67-1.53,1.08-2.24.19-.33.32-.96.98-.63-.02,2.68-1.1,5.01-2.4,7.26-.59-.16-.45-.65-.42-1.04.04-.58.17-1.16.26-1.74Z" fill="#5b5b5b" stroke-width="0"/>
  <path d="M37.21,112.2c1.41.97,2.58,1.76,4.02,2.74-.3-1.49-.09-2.78-.32-4.01-.26-1.38-.04-2.78-.29-4.15-.12-.69.28-.6.65-.33,3.72,2.61,7.43,5.22,11.15,7.83.34.24.46.56.48.97.15,2.98.34,5.95.48,8.93.28,5.96.52,11.92.8,17.89.13,2.68.31,5.37.46,8.05.01.26.16.64-.21.77-.26.09-.44-.19-.63-.35-4.51-3.71-9.02-7.43-13.55-11.12-.47-.38-.72-.79-.77-1.37-.35-4.27-.68-8.53-1.05-12.8-.37-4.25-.8-8.5-1.23-13.05Z" fill="#5b5b5b" stroke-width="0"/>
  <path d="M30.56,113.98c-2.27-1.46-4.4-2.77-6.45-4.2-.7-.49-.4-1.5-.51-2.25-.28-1.99-.39-4-.54-6.01-.02-.32-.18-.74.14-.94.32-.2.62.14.89.31,1.65,1.01,3.29,2.04,4.93,3.05.4.25.79.48.83,1.02.22,2.92.45,5.83.7,9.02Z" fill="#5b5b5b" stroke-width="0"/>
  <path d="M112.81,166.35c.5.2,1,.4,1.5.6.02.54-.58.63-.75,1.04-.07.04-.17.06-.21.12-.91,1.29-1.86,1.16-2.84.1.73-.66,1.38-1.43,2.29-1.86Z" fill="#904d07" stroke-width="0"/>
  <path d="M123.65,158.81c-.38.32-.83.6-1.14.98-.72.89-1.4.88-2.14.06.71-.79,1.52-1.48,2.43-2.03.18.42,1.17.14.84.99Z" fill="#904d07" stroke-width="0"/>
  <path d="M131.93,150.21c1.45.36.27.85.06,1.3-.23.18-.5.33-.67.55-.58.72-1.17.83-1.84.14.71-.8,1.44-1.57,2.45-1.98Z" fill="#904d07" stroke-width="0"/>
  <path d="M80.68,99.21c-.09.58-.21,1.16-.26,1.74-.03.39-.17.88.42,1.04.21.11.43.22.73.37-2.04,1.1-3.85,2.5-5.94,3.39-.69-.47-1.34-1.01-2.07-1.4-.81-.43-.76-.77-.03-1.18,2.38-1.32,4.76-2.64,7.15-3.96Z" fill="#f2a314" stroke-width="0"/>
</svg>